<?xml version="1.0" standalone="no"?><!DOCTYPE svg PUBLIC "-//W3C//DTD SVG 1.1//EN" "http://www.w3.org/Graphics/SVG/1.1/DTD/svg11.dtd"><svg t="1504056641043" class="icon" style="" viewBox="0 0 1463 1024" version="1.1" xmlns="http://www.w3.org/2000/svg" p-id="5146" xmlns:xlink="http://www.w3.org/1999/xlink" width="182.875" height="128"><defs><style type="text/css"></style></defs><path d="M0 694.890636C0 573.911749 71.651476 469.992738 175.862942 413.061497L200.526647 401.655752 202.281378 374.262467C210.957543 321.913021 235.231308 271.805731 275.102673 232.129335 335.835829 172.078574 418.600595 150.534389 495.223806 167.789234L499.220691 168.959054 511.991226 149.851994C522.714576 135.911639 534.510262 122.556194 547.378282 109.883144 701.892009-43.265793 946.091937-35.272023 1091.442074 127.235474 1153.345049 196.449825 1187.172345 282.626566 1193.801325 370.168097L1193.996295 378.551807 1224.996525 386.253122C1361.573012 432.266043 1462.372503 551.197744 1462.372503 694.890636 1462.372503 880.307108 1295.283211 1024 1098.558479 1024L363.814025 1024C166.991807 1024 0 880.307108 0 694.890636ZM1389.258752 694.890636C1389.258752 572.839414 1290.116506 466.093338 1152.467684 443.184363L1121.467454 438.115143 1121.954879 406.724972C1122.929729 323.667751 1094.659079 240.513045 1036.947958 175.880489 919.283561 44.373223 723.436194 38.329153 598.752877 161.842649 577.988572 182.50947 560.441272 205.51593 546.208462 229.984665L530.610862 256.79304 501.560331 245.777235C443.2643 223.64814 375.317255 235.833765 326.672239 284.088841 288.945544 321.523081 270.228423 372.995162 271.885668 424.564728L272.763033 450.495738 248.391783 459.854298C143.302952 500.018119 73.113751 591.751505 73.113751 694.890636 73.113751 832.441973 199.454312 950.886249 363.814025 950.886249L1098.558479 950.886249C1262.820706 950.886249 1389.258752 832.441973 1389.258752 694.890636ZM731.234994 817.039342 731.234994 466.483278 647.397893 550.320379C633.067598 564.553189 609.963653 564.553189 595.633357 550.320379 581.400547 535.990084 581.400547 512.886139 595.633357 498.555843L741.860859 352.328342C756.191154 338.095531 779.2951 338.095531 793.625395 352.328342L939.852897 498.555843C954.085707 512.886139 954.085707 535.990084 939.852897 550.320379 925.522601 564.553189 902.418656 564.553189 888.088361 550.320379L804.25126 466.483278 804.25126 817.039342 731.234994 817.039342Z" p-id="5147" fill="#17B05A"></path></svg>